<?xml version="1.0" standalone="no"?>
<!DOCTYPE svg PUBLIC "-//W3C//DTD SVG 20010904//EN"
 "http://www.w3.org/TR/2001/REC-SVG-20010904/DTD/svg10.dtd">
<svg version="1.0" xmlns="http://www.w3.org/2000/svg"
 width="500.000000pt" height="500.000000pt" viewBox="0 0 500.000000 500.000000"
 preserveAspectRatio="xMidYMid meet">

<g transform="translate(0.000000,500.000000) scale(0.100000,-0.100000)"
fill="#000000" stroke="none">
<path d="M2392 4795 c-141 -278 -136 -270 -168 -273 -75 -8 -235 -46 -332 -79
-307 -103 -557 -255 -796 -483 -296 -284 -488 -623 -571 -1011 -15 -68 -28
-130 -31 -136 -2 -8 -22 -13 -51 -13 -42 0 -64 -10 -178 -78 -171 -103 -175
-105 -175 -117 0 -5 28 -25 63 -42 34 -18 100 -56 147 -84 51 -31 107 -57 140
-64 l55 -11 17 -122 c52 -374 223 -732 500 -1051 152 -173 313 -298 540 -415
163 -85 266 -124 488 -188 l185 -54 62 -124 c34 -69 75 -159 92 -200 50 -125
80 -190 90 -190 11 0 52 93 86 197 33 101 119 301 137 319 7 6 67 24 133 39
410 94 793 278 1008 485 160 153 321 378 427 595 95 194 141 351 175 594 8 58
21 110 28 117 6 6 41 16 75 22 50 9 84 24 155 70 51 33 111 69 135 81 23 12
42 25 42 29 0 4 -31 25 -68 46 -214 124 -242 137 -296 143 l-54 6 -12 66 c-15
88 -72 287 -111 386 -46 119 -142 299 -212 397 -244 339 -599 620 -950 752
-153 57 -395 116 -479 116 -23 0 -31 6 -39 29 -5 15 -21 48 -34 72 -25 45 -95
188 -132 269 l-20 45 -71 -140z m103 -199 l26 -79 -7 -236 c-3 -130 -11 -242
-17 -248 -14 -18 -41 -16 -65 5 -19 16 -21 36 -31 247 l-10 230 24 53 c13 29
27 69 31 88 9 46 17 36 49 -60z m-225 -244 l0 -59 -108 -21 c-156 -31 -301
-81 -453 -157 -276 -139 -466 -296 -642 -533 -175 -235 -260 -430 -332 -759
-5 -21 -11 -23 -65 -23 -70 0 -68 -8 -39 128 74 354 239 653 501 914 183 182
333 289 552 393 165 79 278 119 425 150 169 35 161 36 161 -33z m522 33 c298
-53 594 -188 843 -384 361 -284 626 -726 693 -1154 l9 -58 -66 3 -65 3 -12 76
c-67 438 -386 901 -795 1154 -182 113 -426 209 -609 240 -52 9 -105 18 -117
21 -21 4 -23 10 -23 64 0 59 0 59 28 55 15 -3 66 -12 114 -20z m-512 -305 l0
-80 46 -45 c53 -50 99 -75 141 -75 45 1 108 35 139 76 27 35 29 43 27 121 -2
97 -13 92 136 64 344 -67 635 -227 889 -491 108 -113 248 -317 216 -317 -8 0
-14 7 -15 16 0 10 -2 12 -6 4 -6 -16 -43 -17 -43 -1 0 23 -45 78 -65 79 -12 0
-15 3 -7 6 10 4 7 10 -10 21 -13 9 -27 16 -31 14 -5 -1 -6 2 -3 7 3 5 -8 11
-25 15 -22 4 -34 15 -44 40 -8 19 -18 37 -22 39 -5 3 -51 8 -104 11 l-96 6
-23 -45 c-15 -29 -27 -42 -33 -36 -13 13 -37 2 -37 -16 0 -8 -7 -13 -17 -11
-12 2 -17 11 -15 27 3 22 1 23 -50 20 -29 -2 -70 3 -90 9 -41 14 -118 1 -118
-20 0 -6 -7 -19 -16 -29 -8 -9 -17 -41 -20 -69 -4 -52 -19 -84 -34 -75 -4 3
-7 -6 -7 -19 0 -15 15 -39 38 -62 22 -21 39 -43 39 -49 0 -5 -4 -4 -8 3 -5 7
-87 92 -183 190 -96 97 -217 222 -269 276 l-94 98 -44 -49 c-137 -150 -518
-543 -527 -543 -5 0 -4 4 4 9 8 5 10 14 6 21 -5 8 -4 11 2 7 5 -4 23 8 39 25
16 17 23 28 17 24 -7 -4 -13 -2 -13 3 0 6 7 11 15 11 14 0 17 7 19 55 1 14 7
19 21 18 17 -1 17 1 -5 19 -17 14 -19 18 -7 14 11 -3 16 -2 12 4 -3 6 -18 10
-32 10 -18 0 -24 4 -19 15 3 8 1 15 -4 15 -5 0 -7 7 -4 15 4 9 0 15 -9 15 -9
0 -29 14 -45 31 -27 29 -32 30 -75 24 -41 -6 -57 -17 -127 -85 -69 -68 -84
-78 -115 -78 -19 0 -38 4 -41 9 -8 13 -24 11 -21 -3 1 -6 -9 -14 -23 -18 -20
-5 -25 -12 -25 -36 0 -19 -5 -29 -15 -29 -8 0 -16 6 -16 13 -3 23 -4 24 -18
13 -11 -10 -23 -8 -56 9 -22 11 -38 25 -35 30 3 5 0 12 -6 16 -8 4 -9 3 -5 -4
12 -20 -3 -14 -48 18 -62 45 -92 44 -119 -3 l-22 -38 37 -32 c20 -18 47 -40
60 -49 23 -17 22 -17 -12 -5 -19 7 -39 18 -43 25 -4 6 -17 12 -28 12 -11 0
-18 4 -14 9 12 21 -18 22 -55 2 -22 -11 -40 -17 -40 -13 0 25 157 242 268 370
60 69 230 208 332 272 150 93 341 171 505 205 159 33 145 38 145 -55z m188
-711 l-3 -214 -30 -2 c-178 -15 -338 -116 -447 -282 -27 -41 -55 -99 -64 -130
-23 -86 -25 -89 -135 -225 -57 -70 -123 -153 -147 -184 -23 -31 -50 -66 -60
-77 -62 -72 -142 -176 -161 -207 -13 -21 -27 -38 -32 -38 -4 0 -18 14 -31 30
-12 17 -28 30 -36 30 -7 0 -34 -23 -60 -52 -26 -29 -61 -66 -78 -83 -50 -48
-62 -75 -68 -149 -3 -38 -8 -71 -10 -73 -5 -5 -88 130 -125 205 l-32 64 66 71
c36 40 129 140 208 224 193 205 699 746 756 808 26 28 129 138 231 246 102
107 199 211 215 231 17 19 33 32 38 28 4 -3 6 -103 5 -221z m889 105 c-3 -3
-12 -4 -19 -1 -8 3 -5 6 6 6 11 1 17 -2 13 -5z m213 -148 c0 -2 -8 -10 -17
-17 -16 -13 -17 -12 -4 4 13 16 21 21 21 13z m-2144 -25 c-3 -5 0 -14 7 -19
13 -11 11 -78 -2 -86 -4 -3 -5 10 -3 29 2 18 -1 42 -7 53 -6 10 -7 22 -4 26 9
9 15 7 9 -3z m1639 -121 c3 -6 -1 -7 -9 -4 -18 7 -21 14 -7 14 6 0 13 -4 16
-10z m-463 -160 c61 -19 178 -91 178 -110 0 -5 -6 -13 -14 -17 -13 -8 -101
-85 -228 -200 -32 -29 -62 -53 -67 -53 -5 0 -35 22 -67 49 -60 52 -100 69
-117 52 -17 -17 1 -56 48 -107 25 -27 48 -60 52 -74 10 -43 42 -70 83 -70 41
0 60 16 82 67 7 18 51 71 98 119 72 73 86 83 88 65 5 -29 26 -26 57 7 25 27
25 27 5 44 -24 20 -24 22 -4 54 22 32 38 19 75 -62 86 -188 44 -401 -103 -529
-56 -49 -179 -107 -242 -116 -176 -23 -384 85 -455 235 -88 188 -61 378 74
524 118 127 291 173 457 122z m1953 -371 c133 -40 132 -36 25 -76 l-95 -35
-260 12 c-143 7 -282 15 -310 19 l-50 6 3 35 c2 19 5 36 7 38 2 2 99 8 217 13
117 5 229 11 248 13 58 6 141 -4 215 -25z m-3526 3 c57 -9 76 -35 44 -62 -19
-15 -50 -19 -200 -25 -346 -15 -419 -13 -505 15 -43 14 -78 28 -78 31 0 3 33
18 73 32 l72 27 275 -6 c151 -3 295 -8 319 -12z m-290 -350 c67 -358 216 -656
474 -947 113 -129 268 -244 467 -349 175 -92 342 -149 558 -192 20 -4 22 -10
22 -59 0 -35 -4 -55 -12 -55 -6 0 -50 7 -97 16 -376 69 -757 277 -1024 558
-57 60 -180 212 -224 276 -52 76 -159 290 -197 392 -47 127 -96 329 -96 395 0
52 1 53 28 53 35 0 45 9 31 27 -9 10 -6 13 17 13 l29 0 24 -128z m3527 50 c20
-6 42 -8 50 -5 35 13 -10 -243 -73 -412 -62 -168 -187 -381 -321 -546 -76 -94
-243 -254 -337 -324 -254 -187 -606 -330 -877 -358 l-48 -5 0 44 c0 24 0 47 0
52 -1 4 19 10 42 13 67 10 305 78 386 110 272 108 537 296 703 499 234 286
350 528 404 845 19 107 27 137 32 114 2 -9 20 -21 39 -27z m-2323 -36 c-3 -4
-9 -2 -14 5 -13 22 -11 31 5 17 8 -7 12 -17 9 -22z m262 -241 c22 -10 60 -24
84 -30 l44 -12 -94 -104 c-51 -57 -137 -149 -189 -204 -76 -79 -294 -310 -471
-499 -18 -19 -19 -19 -56 12 -114 96 -207 179 -217 194 -9 15 6 34 89 120 110
113 325 344 509 546 l120 131 70 -67 c39 -37 89 -76 111 -87z m935 -96 c41
-45 74 -87 72 -92 -1 -4 2 -6 7 -3 12 8 32 -18 28 -35 -2 -8 -2 -10 1 -6 2 4
10 3 18 -4 8 -6 11 -16 7 -22 -3 -5 -2 -7 4 -4 10 6 41 -22 58 -53 8 -13 7
-13 -10 0 -17 14 -18 13 -12 -2 4 -12 0 -21 -11 -27 -14 -8 -18 -5 -19 12 -2
17 0 19 8 7 7 -11 9 -8 6 12 -1 15 -7 31 -12 35 -4 4 -5 3 -1 -4 9 -16 -163
-17 -182 0 -10 8 -15 8 -21 -2 -6 -9 -10 -9 -20 2 -9 12 -8 18 6 32 16 16 17
16 25 -4 7 -20 37 -28 51 -14 8 7 -48 47 -82 58 -18 5 -21 9 -10 16 8 5 9 9 4
9 -6 0 -12 12 -13 27 -1 17 -20 44 -56 77 -49 47 -54 56 -59 106 -4 30 -9 69
-13 87 -6 30 -1 27 72 -47 44 -43 113 -115 154 -161z m-670 -208 l0 -229 -35
-22 c-35 -22 -191 -181 -254 -260 -19 -25 -68 -76 -107 -115 -39 -38 -79 -82
-89 -97 -9 -16 -24 -28 -32 -28 -31 0 -273 110 -273 124 0 6 39 51 88 101 142
148 332 353 412 445 137 159 275 310 283 310 4 0 7 -103 7 -229z m560 154 c0
-8 -4 -15 -10 -15 -5 0 -10 7 -10 15 0 8 5 15 10 15 6 0 10 -7 10 -15z m-10
-41 c0 -21 -17 -17 -23 5 -3 14 -1 18 9 14 8 -3 14 -11 14 -19z m-521 -696
c17 -66 20 -116 22 -375 l2 -298 -29 -90 c-17 -54 -30 -82 -32 -70 -3 11 -17
52 -32 90 -39 98 -41 135 -32 435 9 257 10 267 37 333 15 38 31 65 36 60 5 -5
18 -43 28 -85z"/>
<path d="M3158 3920 c-9 -6 -36 -45 -61 -88 -25 -42 -55 -94 -67 -114 l-22
-37 26 -26 c26 -26 79 -34 91 -14 4 6 13 8 21 5 8 -3 11 0 7 10 -3 8 19 53 51
103 31 49 56 96 56 104 0 17 -55 67 -73 67 -7 0 -19 -5 -29 -10z"/>
<path d="M1706 3895 l-27 -25 27 -48 c15 -26 41 -72 57 -102 56 -103 88 -121
142 -79 18 15 25 29 23 43 -3 12 -36 69 -74 128 -77 119 -97 130 -148 83z"/>
<path d="M3610 3581 c0 -5 7 -12 16 -15 14 -5 15 -4 4 9 -14 17 -20 19 -20 6z"/>
<path d="M3700 3516 c0 -4 9 -19 20 -33 11 -14 20 -21 20 -16 0 6 -9 20 -20
33 -11 13 -20 20 -20 16z"/>
<path d="M2430 2933 c0 -61 10 -75 46 -71 28 3 29 5 29 58 l0 55 -37 3 -38 3
0 -48z"/>
<path d="M2262 2948 c-25 -25 -6 -84 28 -88 55 -7 68 25 29 74 -22 28 -39 32
-57 14z"/>
<path d="M2610 2928 c-27 -44 -22 -62 17 -66 27 -3 34 2 48 27 14 29 14 32 -5
51 -27 27 -37 25 -60 -12z"/>
<path d="M2123 2788 c-9 -20 -5 -26 26 -51 l36 -28 17 21 c10 12 18 26 18 30
0 13 -34 38 -61 45 -20 5 -27 2 -36 -17z"/>
<path d="M2074 2606 c-3 -8 -4 -25 -2 -38 3 -25 32 -34 75 -23 20 5 24 11 21
38 -3 30 -6 32 -46 35 -30 2 -44 -1 -48 -12z"/>
<path d="M2770 2579 l0 -40 48 3 c47 3 47 3 50 41 l3 37 -50 0 -51 0 0 -41z"/>
<path d="M2147 2430 c-30 -24 -33 -38 -13 -65 13 -19 15 -18 56 9 39 26 41 29
27 49 -20 30 -38 32 -70 7z"/>
<path d="M2721 2422 c-13 -24 2 -46 39 -62 53 -22 82 24 38 61 -29 23 -65 24
-77 1z"/>
<path d="M2265 2288 c-12 -30 -12 -35 5 -52 16 -17 21 -17 35 -6 28 23 46 65
32 79 -23 23 -57 13 -72 -21z"/>
<path d="M2597 2313 c-8 -13 24 -83 38 -83 45 0 57 28 29 68 -14 21 -58 30
-67 15z"/>
<path d="M2435 2280 c-4 -12 -4 -37 0 -56 5 -31 9 -35 33 -32 25 3 27 6 27 53
0 47 -2 50 -27 53 -20 2 -28 -2 -33 -18z"/>
<path d="M628 2373 c6 -2 18 -2 25 0 6 3 1 5 -13 5 -14 0 -19 -2 -12 -5z"/>
<path d="M3060 1993 c0 -13 17 -26 38 -29 6 -1 10 2 6 7 -3 5 -9 7 -14 4 -5
-3 -13 3 -19 12 -6 10 -11 13 -11 6z"/>
<path d="M3160 1810 c0 -5 5 -10 11 -10 5 0 7 5 4 10 -3 6 -8 10 -11 10 -2 0
-4 -4 -4 -10z"/>
</g>
</svg>
